<svg width="30" height="30" viewBox="0 0 30 30" fill="none" xmlns="http://www.w3.org/2000/svg">
<path d="M24.375 5.625H5.625C4.87908 5.625 4.16371 5.92132 3.63626 6.44876C3.10882 6.97621 2.8125 7.69158 2.8125 8.4375V21.5625C2.8125 22.3084 3.10882 23.0238 3.63626 23.5512C4.16371 24.0787 4.87908 24.375 5.625 24.375H24.375C25.1209 24.375 25.8363 24.0787 26.3637 23.5512C26.8912 23.0238 27.1875 22.3084 27.1875 21.5625V8.4375C27.1875 7.69158 26.8912 6.97621 26.3637 6.44876C25.8363 5.92132 25.1209 5.625 24.375 5.625ZM4.6875 11.25H25.3125V13.125H18.75C18.5014 13.125 18.2629 13.2238 18.0871 13.3996C17.9113 13.5754 17.8125 13.8139 17.8125 14.0625C17.8125 14.8084 17.5162 15.5238 16.9887 16.0512C16.4613 16.5787 15.7459 16.875 15 16.875C14.2541 16.875 13.5387 16.5787 13.0113 16.0512C12.4838 15.5238 12.1875 14.8084 12.1875 14.0625C12.1875 13.8139 12.0887 13.5754 11.9129 13.3996C11.7371 13.2238 11.4986 13.125 11.25 13.125H4.6875V11.25ZM5.625 7.5H24.375C24.6236 7.5 24.8621 7.59877 25.0379 7.77459C25.2137 7.9504 25.3125 8.18886 25.3125 8.4375V9.375H4.6875V8.4375C4.6875 8.18886 4.78627 7.9504 4.96209 7.77459C5.1379 7.59877 5.37636 7.5 5.625 7.5ZM24.375 22.5H5.625C5.37636 22.5 5.1379 22.4012 4.96209 22.2254C4.78627 22.0496 4.6875 21.8111 4.6875 21.5625V15H10.4063C10.6214 16.0596 11.1963 17.0123 12.0335 17.6966C12.8707 18.3809 13.9187 18.7547 15 18.7547C16.0813 18.7547 17.1293 18.3809 17.9665 17.6966C18.8037 17.0123 19.3786 16.0596 19.5938 15H25.3125V21.5625C25.3125 21.8111 25.2137 22.0496 25.0379 22.2254C24.8621 22.4012 24.6236 22.5 24.375 22.5Z" fill="white"/>
</svg>
