<svg width="26" height="26" viewBox="0 0 26 26" fill="none" xmlns="http://www.w3.org/2000/svg">
<mask id="mask0_113_661" style="mask-type:alpha" maskUnits="userSpaceOnUse" x="0" y="0" width="26" height="26">
<rect width="25.0917" height="25.0917" fill="#D9D9D9"/>
</mask>
<g mask="url(#mask0_113_661)">
<path d="M15.056 14.0977L13.5457 12.5797C13.7019 11.7597 13.4676 10.992 12.8426 10.2766C12.2177 9.56124 11.4105 9.28207 10.421 9.4391L8.91067 7.92112C9.20579 7.78154 9.50524 7.67685 9.80904 7.60706C10.1128 7.53727 10.4383 7.50237 10.7855 7.50237C12.0875 7.50237 13.1942 7.96038 14.1056 8.8764C15.0169 9.79243 15.4726 10.9047 15.4726 12.2133C15.4726 12.5623 15.4379 12.8895 15.3685 13.1948C15.299 13.5001 15.1949 13.8011 15.056 14.0977ZM18.3891 17.3954L16.8788 15.9298C17.5384 15.4238 18.1243 14.8698 18.6364 14.2678C19.1485 13.6659 19.5869 12.9811 19.9514 12.2133C19.0835 10.4511 17.8379 9.05088 16.2148 8.01273C14.5916 6.97457 12.7819 6.45549 10.7855 6.45549C10.2821 6.45549 9.78734 6.49039 9.30127 6.56018C8.81519 6.62997 8.3378 6.73466 7.86909 6.87424L6.25464 5.25158C6.96639 4.95496 7.69549 4.7325 8.44196 4.58419C9.18843 4.43588 9.96961 4.36173 10.7855 4.36173C13.4068 4.36173 15.7417 5.09018 17.7902 6.54709C19.8386 8.004 21.3228 9.89275 22.2429 12.2133C21.8436 13.2428 21.3185 14.1981 20.6675 15.0792C20.0165 15.9603 19.257 16.7324 18.3891 17.3954ZM18.9099 23.8337L14.5352 19.4892C13.9276 19.6811 13.3157 19.825 12.6994 19.921C12.0832 20.017 11.4452 20.065 10.7855 20.065C8.16421 20.065 5.82933 19.3365 3.78089 17.8796C1.73244 16.4227 0.248188 14.5339 -0.671875 12.2133C-0.307322 11.2886 0.15271 10.4293 0.70822 9.63539C1.26373 8.84151 1.89736 8.1305 2.60911 7.50237L-0.255242 4.5711L1.20297 3.10547L20.3681 22.3681L18.9099 23.8337ZM4.06732 8.96801C3.56389 9.42165 3.10386 9.91892 2.68722 10.4598C2.27059 11.0007 1.91472 11.5852 1.6196 12.2133C2.48759 13.9756 3.73315 15.3758 5.35628 16.414C6.97941 17.4521 8.78916 17.9712 10.7855 17.9712C11.1327 17.9712 11.4712 17.9494 11.8011 17.9058C12.1309 17.8621 12.4694 17.8142 12.8166 17.7618L11.8792 16.7673C11.6882 16.8196 11.5059 16.8589 11.3323 16.885C11.1588 16.9112 10.9765 16.9243 10.7855 16.9243C9.48354 16.9243 8.37686 16.4663 7.46548 15.5503C6.5541 14.6343 6.0984 13.5219 6.0984 12.2133C6.0984 12.0214 6.11142 11.8382 6.13746 11.6637C6.1635 11.4892 6.20256 11.306 6.25464 11.1141L4.06732 8.96801Z" fill="#AFAFAF"/>
</g>
</svg>
