<svg width="30" height="30" viewBox="0 0 30 30" fill="none" xmlns="http://www.w3.org/2000/svg">
<path d="M25.2879 13.848C25.2524 13.6977 25.1803 13.5586 25.0781 13.4429C24.9759 13.3271 24.8467 13.2385 24.702 13.1847L17.9508 10.6523L19.6687 2.05893C19.7077 1.85926 19.6806 1.65237 19.5916 1.46945C19.5026 1.28654 19.3565 1.13754 19.1754 1.04493C18.9942 0.952321 18.7879 0.921133 18.5875 0.956072C18.3871 0.99101 18.2035 1.09018 18.0645 1.23861L4.93945 15.3011C4.83285 15.4134 4.75574 15.5504 4.715 15.6998C4.67426 15.8492 4.67116 16.0064 4.70598 16.1573C4.7408 16.3082 4.81245 16.4481 4.91454 16.5645C5.01663 16.681 5.14598 16.7703 5.29102 16.8246L12.0445 19.357L10.3313 27.941C10.2923 28.1406 10.3194 28.3475 10.4084 28.5304C10.4974 28.7133 10.6435 28.8623 10.8246 28.955C11.0058 29.0476 11.2121 29.0788 11.4125 29.0438C11.6129 29.0089 11.7965 28.9097 11.9355 28.7613L25.0605 14.6988C25.1652 14.5864 25.2407 14.4501 25.2803 14.3017C25.32 14.1534 25.3226 13.9976 25.2879 13.848ZM12.8168 25.0781L14.0437 18.9398C14.0877 18.7221 14.0529 18.4959 13.9456 18.3014C13.8383 18.107 13.6654 17.957 13.4578 17.8781L7.26563 15.5519L17.182 4.92768L15.9563 11.066C15.9123 11.2837 15.9471 11.5099 16.0544 11.7043C16.1617 11.8988 16.3346 12.0488 16.5422 12.1277L22.7297 14.448L12.8168 25.0781Z" fill="white"/>
</svg>
