<svg width="217" height="56" viewBox="0 0 217 56" fill="none" xmlns="http://www.w3.org/2000/svg">
<path d="M40.213 23.5858C44.39 23.5858 45.3298 25.4001 45.3298 27.663C45.3298 30.0617 44.193 31.7802 40.2303 31.7802C36.2928 31.7802 35.1547 30.1615 35.1547 27.663C35.1547 25.2045 36.3953 23.5858 40.213 23.5858Z" fill="white"/>
<path d="M83.8656 23.5858C88.0426 23.5858 88.9824 25.4001 88.9824 27.663C88.9824 30.0617 87.8443 31.7802 83.8829 31.7802C79.9467 31.7802 78.8073 30.1615 78.8073 27.663C78.8073 25.2045 80.0479 23.5858 83.8656 23.5858Z" fill="white"/>
<path fill-rule="evenodd" clip-rule="evenodd" d="M3.23029 51.2474V4.05536H214.316V51.2474H3.23029ZM103.833 48.5852H211.654V6.71759H103.833V48.5852ZM40.233 35.7972C47.6486 35.7972 50.7661 32.5985 50.7661 27.6028C50.7661 22.5259 47.2546 19.5083 40.233 19.5083C33.3191 19.5083 29.6799 22.7855 29.6799 27.6028C29.6799 33.0391 33.4975 35.7972 40.233 35.7972ZM14.4506 19.8677V35.5576H29.4176V31.3792H19.8656V19.8677H14.4506ZM67.5168 35.5576L67.3771 34.0374C65.5656 35.3302 63.3607 35.9524 61.1408 35.7972C57.8037 35.7972 55.0243 34.7975 53.4656 32.7795C52.4374 31.3062 51.9183 29.5377 51.9867 27.7426C51.9283 25.9851 52.4654 24.2594 53.5108 22.8454C55.0882 20.8873 57.9474 19.5882 62.2044 19.5882C67.1015 19.5882 69.9794 21.087 71.2173 23.6055C71.483 24.1986 71.6392 24.8349 71.6779 25.4837H66.4972C66.3666 25.0894 66.1237 24.742 65.7984 24.484C64.7664 23.7998 63.534 23.4834 62.3002 23.5855C61.5765 23.4978 60.8422 23.5646 60.1463 23.7817C59.4504 23.9988 58.8084 24.3611 58.2629 24.8447C57.6434 25.6926 57.3526 26.7365 57.4443 27.7825C57.3724 28.7804 57.6398 29.7735 58.203 30.6005C58.7534 31.1134 59.4078 31.5018 60.1216 31.7398C60.8354 31.9776 61.5919 32.0595 62.3401 31.9795C63.8261 32.1004 65.3013 31.6421 66.4573 30.7003C66.7055 30.3899 66.8767 30.0249 66.9564 29.6354H61.3817V26.2637H71.8137V35.5576H67.5168ZM83.8856 35.7972C91.2999 35.7972 94.4187 32.5985 94.4187 27.6028C94.4187 22.5259 90.9018 19.5083 83.8856 19.5083C76.9718 19.5083 73.3325 22.7855 73.3325 27.6028C73.3325 33.0391 77.1501 35.7972 83.8856 35.7972Z" fill="white"/>
<path d="M112.954 35.4975V19.8077H116.815V35.4975H112.954Z" fill="white"/>
<path d="M136.638 28.9422C135.659 30.2214 133.975 30.8057 131.602 30.8204C131.102 30.8204 124.466 30.8004 124.466 30.8004V35.4979H120.688V19.8081H131.603C132.478 19.7155 133.363 19.8083 134.199 20.0803C135.036 20.3523 135.806 20.7975 136.459 21.3868C137.322 22.5105 137.741 23.9116 137.639 25.3242C137.727 26.609 137.374 27.8854 136.638 28.9422ZM133.54 23.8267C133.141 23.2277 132.28 22.8949 130.822 22.8949H124.446V27.671H130.781C132.34 27.671 133.161 27.3515 133.54 26.7312C133.765 26.2942 133.862 25.8021 133.82 25.3122C133.853 24.8013 133.757 24.2903 133.54 23.8267Z" fill="white"/>
<path d="M148.771 35.7377C141.655 35.7377 139.477 33.0754 139.477 30.4412H143.514C143.514 31.7403 145.293 32.72 148.95 32.72C152.587 32.72 153.547 32.0798 153.547 31.0402C153.547 29.8808 152.828 29.5214 149.45 29.142C148.784 29.0821 146.972 28.8625 146.292 28.7626C141.5 28.2222 139.655 26.8032 139.655 24.2648C139.655 21.5866 142.355 19.5686 148.21 19.5686C154.566 19.5686 157.005 22.0671 157.005 24.6654H153.012C153.012 23.3463 151.513 22.5862 147.975 22.5862C144.337 22.5862 143.558 23.0854 143.558 24.0651C143.558 25.0847 144.357 25.4042 148.217 25.8635C149.097 25.9846 151.055 26.2042 151.594 26.2628C155.673 26.6821 157.511 28.161 157.511 30.7793C157.504 33.8981 154.706 35.7377 148.771 35.7377Z" fill="white"/>
<path d="M168.879 35.7172C163.663 35.7172 160.265 33.6579 160.265 29.3278V19.8077H164.081V29.3811C164.081 31.3604 165.701 32.6782 169.038 32.6782C172.056 32.6782 173.856 31.4403 173.856 29.3811V19.8077H177.633V29.6832C177.633 33.6193 174.475 35.7172 168.879 35.7172Z" fill="white"/>
<path d="M198.319 35.4975V25.0243L193.422 35.4975H189.705L184.948 25.0243V35.4975H181.354V19.8077H186.223L191.619 31.7598L197.136 19.8077H201.928V35.4975H198.319Z" fill="white"/>
</svg>
