<svg width="176" height="47" viewBox="0 0 176 47" fill="none" xmlns="http://www.w3.org/2000/svg">
<path d="M40.6257 16.3065C41.1049 16.3065 41.2647 16.4795 41.2647 16.9454V27.4878H46.6823C47.1482 27.4878 47.3212 27.6609 47.3212 28.1268V29.0585C47.3212 29.5244 47.1482 29.6975 46.6823 29.6975H39.5475C39.0816 29.6975 38.8953 29.5244 38.8953 29.0585V16.9454C38.8953 16.4795 39.0816 16.3065 39.5475 16.3065H40.6257Z" fill="white"/>
<path d="M52.0466 20.952C52.0466 17.8772 53.9901 16.0269 57.3711 16.0269C60.7521 16.0269 62.6956 17.8772 62.6956 20.952V25.0519C62.6956 28.1268 60.7388 29.977 57.3711 29.977C54.0034 29.977 52.0466 28.1268 52.0466 25.0519V20.952ZM60.4593 20.952C60.4593 19.2216 59.3811 18.2898 57.4377 18.2898C55.4942 18.2898 54.4293 19.2349 54.4293 20.952V25.0785C54.4293 26.8223 55.4942 27.7407 57.4377 27.7407C59.3811 27.7407 60.4593 26.7823 60.4593 25.0785V20.952Z" fill="white"/>
<path d="M78.5492 22.3632C79.0683 22.3632 79.1881 22.5363 79.1881 23.0022V25.5313C79.2023 26.127 79.0829 26.7184 78.8387 27.2619C78.5945 27.8055 78.2319 28.2875 77.7772 28.6727C76.648 29.5719 75.2242 30.0179 73.7838 29.924C70.3362 29.924 68.4594 28.0737 68.4594 24.9988V20.8724C68.4594 17.8374 70.4028 15.9739 73.7838 15.9739C76.446 15.9739 78.1765 17.0255 78.9086 19.1286C78.9496 19.2077 78.9716 19.2951 78.9728 19.3841C78.974 19.4731 78.9544 19.5612 78.9157 19.6412C78.8769 19.7214 78.82 19.7914 78.7494 19.8457C78.6789 19.8999 78.5966 19.937 78.5093 19.9539L77.471 20.3133C77.0184 20.473 76.8321 20.3799 76.6723 19.914C76.4518 19.3455 76.048 18.8665 75.5249 18.5532C75.0018 18.2398 74.3892 18.1097 73.7838 18.1835C71.8271 18.1835 70.7622 19.1286 70.7622 20.8458V25.0787C70.7622 26.8225 71.8404 27.7409 73.7838 27.7409C75.7272 27.7409 76.9252 26.8491 76.9252 25.5446V24.5596H74.0367C73.5575 24.5596 73.3845 24.3732 73.3845 23.9073V23.0022C73.3845 22.5363 73.5575 22.3632 74.0367 22.3632H78.5492Z" fill="white"/>
<path d="M84.6857 20.952C84.6857 17.8772 86.6291 16.0269 90.0101 16.0269C93.3912 16.0269 95.3346 17.8772 95.3346 20.952V25.0519C95.3346 28.1268 93.3779 29.977 90.0101 29.977C86.6424 29.977 84.6857 28.1268 84.6857 25.0519V20.952ZM93.085 20.952C93.085 19.2216 92.0068 18.2898 90.0767 18.2898C88.1466 18.2898 87.0551 19.2349 87.0551 20.952V25.0785C87.0551 26.8223 88.1333 27.7407 90.0767 27.7407C92.0201 27.7407 93.085 26.7823 93.085 25.0785V20.952Z" fill="white"/>
<path d="M101.604 16.6925C101.604 16.3996 101.697 16.3065 101.99 16.3065H102.602C102.895 16.3065 102.962 16.3996 102.962 16.6925V29.3115C102.962 29.6043 102.962 29.6975 102.602 29.6975H101.99C101.697 29.6975 101.604 29.6043 101.604 29.3115V16.6925Z" fill="white"/>
<path d="M115.088 16.3065C116.197 16.3065 117.26 16.7468 118.044 17.5307C118.828 18.3144 119.268 19.3776 119.268 20.4862C119.268 21.5947 118.828 22.6579 118.044 23.4416C117.26 24.2255 116.197 24.6659 115.088 24.6659H111.095V29.3115C111.095 29.6043 111.028 29.6975 110.749 29.6975H110.123C109.844 29.6975 109.737 29.6043 109.737 29.3115V16.6925C109.737 16.3996 109.844 16.3065 110.123 16.3065H115.088ZM114.968 23.3481C115.35 23.3481 115.727 23.273 116.079 23.1272C116.431 22.9813 116.751 22.7676 117.02 22.4981C117.29 22.2287 117.504 21.9087 117.649 21.5568C117.795 21.2047 117.87 20.8273 117.87 20.4462C117.87 20.0651 117.795 19.6878 117.649 19.3357C117.504 18.9837 117.29 18.6637 117.02 18.3943C116.751 18.1249 116.431 17.9111 116.079 17.7652C115.727 17.6195 115.35 17.5444 114.968 17.5444H110.975V23.3481H114.968Z" fill="white"/>
<path d="M129.664 16.0403C130.692 15.9269 131.729 16.148 132.621 16.6707C133.512 17.1936 134.212 17.9901 134.616 18.9421C134.722 19.1551 134.616 19.3281 134.403 19.4346L133.817 19.7009C133.578 19.794 133.484 19.7807 133.338 19.5278C133.036 18.8213 132.518 18.2289 131.857 17.8365C131.197 17.4441 130.429 17.2718 129.664 17.3448C127.414 17.3448 126.19 18.2366 126.19 19.834C126.177 20.3221 126.341 20.7986 126.651 21.1753C126.962 21.552 127.399 21.8038 127.88 21.8839C128.596 22.1174 129.339 22.2605 130.09 22.3098C131 22.3583 131.897 22.5423 132.752 22.8556C133.409 23.0631 133.973 23.4899 134.351 24.0644C134.729 24.6389 134.898 25.326 134.829 26.0104C134.829 28.4995 133.018 30.0037 129.691 30.0037C128.599 30.1286 127.498 29.8756 126.57 29.287C125.643 28.6985 124.944 27.8098 124.593 26.7691C124.569 26.7217 124.556 26.6697 124.555 26.6167C124.554 26.5637 124.565 26.5112 124.587 26.4629C124.608 26.4146 124.64 26.3716 124.68 26.3371C124.72 26.3025 124.768 26.2774 124.819 26.2633L125.405 26.0503C125.451 26.0314 125.5 26.0223 125.55 26.0237C125.6 26.025 125.649 26.0367 125.694 26.058C125.739 26.0793 125.779 26.1097 125.812 26.1473C125.844 26.185 125.869 26.2289 125.884 26.2766C126.181 27.0285 126.711 27.6661 127.395 28.097C128.08 28.5278 128.884 28.7294 129.691 28.6726C132.207 28.6726 133.444 27.794 133.444 26.0104C133.468 25.5415 133.325 25.0795 133.039 24.7065C132.754 24.3337 132.346 24.074 131.887 23.9737C131.198 23.7684 130.488 23.6432 129.771 23.601L128.333 23.4147C127.883 23.3192 127.439 23.1992 127.002 23.0553C126.57 22.925 126.168 22.7125 125.817 22.4296C125.464 22.1099 125.186 21.7164 125.002 21.277C124.818 20.8376 124.732 20.3632 124.752 19.8872C124.845 17.5578 126.589 16.0403 129.664 16.0403Z" fill="white"/>
<path d="M142.003 25.1451C142.059 26.0864 142.473 26.9707 143.16 27.6172C143.847 28.2637 144.755 28.6237 145.697 28.6237C146.64 28.6237 147.548 28.2637 148.234 27.6172C148.921 26.9707 149.334 26.0864 149.391 25.1451V16.6925C149.391 16.3996 149.484 16.3065 149.777 16.3065H150.39C150.682 16.3065 150.776 16.3996 150.776 16.6925V25.1318C150.776 28.1534 148.992 29.977 145.704 29.977C142.416 29.977 140.632 28.1534 140.632 25.1318V16.6925C140.632 16.3996 140.726 16.3065 141.005 16.3065H141.631C141.91 16.3065 142.003 16.3996 142.003 16.6925V25.1451Z" fill="white"/>
<path d="M169.145 16.3067C169.438 16.3067 169.531 16.3999 169.531 16.6927V29.3117C169.531 29.6046 169.438 29.6977 169.145 29.6977H168.586C168.306 29.6977 168.213 29.6046 168.213 29.3117V21.6312C168.213 20.5137 168.289 19.3974 168.44 18.2901H168.36C167.944 19.3027 167.458 20.2856 166.909 21.2318L164.047 26.2768C164.012 26.3644 163.951 26.4392 163.872 26.4915C163.794 26.5437 163.702 26.5709 163.608 26.5696H163.235C163.139 26.5701 163.046 26.5426 162.965 26.4907C162.885 26.4386 162.821 26.3644 162.782 26.2768L159.88 21.1786C159.365 20.2459 158.921 19.2759 158.549 18.2768H158.469C158.605 19.3942 158.677 20.5188 158.682 21.6445V29.3117C158.682 29.6046 158.589 29.6977 158.296 29.6977H157.777C157.484 29.6977 157.391 29.6046 157.391 29.3117V16.6927C157.391 16.3999 157.484 16.3067 157.777 16.3067H158.256C158.366 16.2966 158.476 16.3204 158.571 16.3753C158.666 16.4301 158.742 16.5132 158.789 16.6129L163.448 24.8924L168.08 16.6927C168.227 16.4132 168.306 16.3733 168.599 16.3733L169.145 16.3067Z" fill="white"/>
<path d="M16.9451 27.6741V37.2981C16.9451 37.6671 16.7985 38.0209 16.5376 38.2817C16.2769 38.5426 15.9231 38.6891 15.5541 38.6891C15.1852 38.6891 14.8314 38.5426 14.5705 38.2817C14.3096 38.0209 14.1631 37.6671 14.1631 37.2981V27.6875C14.5504 27.9703 15.0147 28.1282 15.4942 28.14C16.0168 28.1549 16.5289 27.9906 16.9451 27.6741ZM28.792 24.8921C28.439 24.8921 28.1004 25.0324 27.8508 25.282C27.6012 25.5316 27.4609 25.8702 27.4609 26.2232V27.9004C27.4609 28.2694 27.6075 28.6232 27.8684 28.884C28.1291 29.1449 28.4829 29.2914 28.8519 29.2914C29.2209 29.2914 29.5747 29.1449 29.8355 28.884C30.0964 28.6232 30.243 28.2694 30.243 27.9004V26.2898C30.2533 26.0989 30.2225 25.908 30.1524 25.7302C30.0824 25.5523 29.975 25.3915 29.8372 25.259C29.6996 25.1264 29.5349 25.025 29.3547 24.9616C29.1743 24.8984 28.9824 24.8747 28.792 24.8921ZM11.1414 31.3214C10.6625 31.307 10.1988 31.1494 9.81032 30.8688V40.5194C9.81032 40.8901 9.95757 41.2457 10.2197 41.5078C10.4818 41.7699 10.8373 41.9171 11.208 41.9171C11.5787 41.9171 11.9342 41.7699 12.1963 41.5078C12.4584 41.2457 12.6057 40.8901 12.6057 40.5194V30.9354C12.171 31.2164 11.6581 31.3516 11.1414 31.3214ZM24.4526 22.0036C24.2722 21.9945 24.092 22.0224 23.9227 22.0852C23.7535 22.148 23.5988 22.2447 23.468 22.3691C23.3373 22.4937 23.2333 22.6435 23.1622 22.8094C23.0913 22.9754 23.0547 23.1542 23.0549 23.3347V30.749C23.0549 31.1197 23.2021 31.4753 23.4642 31.7374C23.7265 31.9995 24.0819 32.1467 24.4526 32.1467C24.8233 32.1467 25.1789 31.9995 25.441 31.7374C25.703 31.4753 25.8503 31.1197 25.8503 30.749V23.4279C25.8609 23.2358 25.8298 23.0437 25.759 22.8648C25.6881 22.6859 25.5795 22.5245 25.4403 22.3916C25.3011 22.2588 25.1348 22.1576 24.9528 22.0953C24.7709 22.0329 24.5775 22.0106 24.386 22.0302L24.4526 22.0036ZM20.0333 24.8522C19.5319 24.8487 19.0439 24.6907 18.6356 24.3996V34.0768C18.6356 34.4475 18.7828 34.8031 19.0449 35.0652C19.3072 35.3273 19.6626 35.4745 20.0333 35.4745C20.404 35.4745 20.7594 35.3273 21.0216 35.0652C21.2837 34.8031 21.431 34.4475 21.431 34.0768V24.4129C21.0087 24.7275 20.4932 24.8914 19.9667 24.8788L20.0333 24.8522ZM8.11981 32.2665V5.23153C8.11631 4.90198 7.98293 4.58715 7.74865 4.35536C7.51437 4.12357 7.19811 3.99358 6.86856 3.99359H6.57571C6.24615 3.99358 5.92989 4.12357 5.69562 4.35536C5.46134 4.58715 5.32796 4.90198 5.32446 5.23153V32.2665C5.32446 32.5983 5.4563 32.9166 5.69095 33.1513C5.92559 33.386 6.24386 33.5177 6.57571 33.5177H6.86856C7.20042 33.5177 7.51867 33.386 7.75332 33.1513C7.98799 32.9166 8.11981 32.5983 8.11981 32.2665ZM11.2879 30.2964H10.995C10.6632 30.2964 10.3449 30.1647 10.1103 29.93C9.8756 29.6953 9.74377 29.377 9.74377 29.0452V8.45283C9.74728 8.1233 9.88065 7.80844 10.1149 7.57666C10.3492 7.34488 10.6655 7.21488 10.995 7.21489H11.2879C11.6174 7.21488 11.9337 7.34488 12.168 7.57666C12.4022 7.80844 12.5356 8.1233 12.5391 8.45283V29.0718C12.5391 29.4037 12.4073 29.7219 12.1726 29.9566C11.938 30.1913 11.6197 30.3231 11.2879 30.3231V30.2964ZM15.6939 27.1284H15.3877C15.0594 27.1284 14.7445 26.9979 14.5124 26.7658C14.2802 26.5336 14.1498 26.2188 14.1498 25.8904V11.6475C14.148 11.4838 14.1788 11.3214 14.2401 11.1697C14.3015 11.0179 14.3924 10.8799 14.5076 10.7635C14.6227 10.6472 14.7598 10.5548 14.9109 10.4918C15.062 10.4287 15.224 10.3962 15.3877 10.3963H15.6939C16.0234 10.3998 16.3382 10.5331 16.57 10.7674C16.8019 11.0017 16.9318 11.318 16.9318 11.6475V25.8904C16.9318 26.2188 16.8013 26.5336 16.5692 26.7658C16.3371 26.9979 16.0222 27.1284 15.6939 27.1284ZM20.0998 23.8672H19.8203C19.4907 23.8672 19.1745 23.7372 18.9402 23.5054C18.7059 23.2736 18.5725 22.9588 18.5691 22.6292V14.962C18.5582 14.7911 18.5824 14.6198 18.6404 14.4586C18.6983 14.2975 18.7888 14.1499 18.9061 14.0251C19.0234 13.9003 19.165 13.801 19.3223 13.7331C19.4795 13.6653 19.649 13.6305 19.8203 13.6309H20.1132C20.445 13.6309 20.7633 13.7627 20.998 13.9973C21.2326 14.232 21.3644 14.5503 21.3644 14.8821V22.6026C21.3661 22.768 21.3351 22.9322 21.273 23.0855C21.2109 23.2389 21.1191 23.3784 21.0026 23.496C20.8863 23.6136 20.7478 23.7069 20.595 23.7706C20.4423 23.8344 20.2786 23.8672 20.1132 23.8672H20.0998ZM24.5192 21.0053H24.2263C23.8945 21.0053 23.5762 20.8735 23.3415 20.6388C23.1068 20.4041 22.9751 20.0859 22.9751 19.754V17.7706C22.9785 17.4411 23.1119 17.1262 23.3462 16.8945C23.5805 16.6626 23.8967 16.5327 24.2263 16.5327H24.5192C24.8487 16.5327 25.165 16.6626 25.3993 16.8945C25.6336 17.1262 25.7669 17.4411 25.7704 17.7706V19.754C25.7704 20.0836 25.6405 20.3999 25.4086 20.6341C25.1769 20.8684 24.862 21.0018 24.5325 21.0053H24.5192Z" fill="white"/>
</svg>
