<svg width="205" height="46" viewBox="0 0 205 46" fill="none" xmlns="http://www.w3.org/2000/svg">
<path d="M60.0459 30.2048C60.0459 31.1928 59.843 31.9519 59.4374 32.4822C59.0423 33.0127 58.382 33.2778 57.4565 33.2778C56.5828 33.2778 55.9641 33.0127 55.6001 32.4822C55.2465 31.9519 55.0698 31.1928 55.0698 30.2048V13.7167C55.0698 12.7287 55.2465 11.9696 55.6001 11.4392C55.9641 10.9089 56.5828 10.6437 57.4565 10.6437C58.382 10.6437 59.0423 10.9089 59.4374 11.4392C59.843 11.9696 60.0459 12.7287 60.0459 13.7167V30.2048Z" fill="white"/>
<path d="M61.5564 25.4158C61.5564 24.3133 61.7332 23.2735 62.0869 22.2959C62.4508 21.3079 62.9915 20.4448 63.7091 19.7065C64.4371 18.9681 65.3419 18.3805 66.4234 17.9438C67.5153 17.5069 68.7944 17.2886 70.2607 17.2886C71.6646 17.2886 72.9074 17.4914 73.9889 17.897C75.0704 18.3025 75.9804 18.8693 76.7186 19.5973C77.457 20.3148 78.0186 21.1727 78.4034 22.171C78.7881 23.159 78.9806 24.2405 78.9806 25.4158C78.9806 26.5077 78.7985 27.5424 78.4346 28.5199C78.0706 29.487 77.5246 30.3398 76.7966 31.0782C76.0688 31.8061 75.1588 32.3884 74.0669 32.8253C72.9749 33.2516 71.7062 33.4648 70.2607 33.4648C68.836 33.4648 67.5777 33.262 66.4857 32.8564C65.4041 32.4405 64.4943 31.8737 63.756 31.1561C63.028 30.4282 62.4768 29.5755 62.1024 28.5979C61.7384 27.61 61.5564 26.5492 61.5564 25.4158ZM66.751 25.4158C66.751 26.1021 66.8133 26.7573 66.9381 27.3812C67.0629 27.9947 67.2605 28.5355 67.5309 29.0035C67.8116 29.4714 68.1757 29.8458 68.6228 30.1266C69.07 30.3969 69.6159 30.5322 70.2607 30.5322C70.8535 30.5322 71.3682 30.4074 71.805 30.1577C72.2522 29.9083 72.6161 29.5598 72.897 29.1127C73.1881 28.6655 73.4066 28.1299 73.552 27.506C73.6977 26.8716 73.7705 26.1749 73.7705 25.4158C73.7705 24.7293 73.7029 24.0793 73.5677 23.4658C73.4429 22.8419 73.2402 22.2959 72.9593 21.8279C72.6786 21.3496 72.3146 20.9752 71.8674 20.7048C71.4306 20.4241 70.895 20.2836 70.2607 20.2836C69.6263 20.2836 69.0856 20.4188 68.6384 20.6892C68.1912 20.9596 67.8273 21.3287 67.5464 21.7967C67.2657 22.2647 67.0629 22.8106 66.9381 23.4347C66.8133 24.0586 66.751 24.7189 66.751 25.4158Z" fill="white"/>
<path d="M91.7848 30.2672C91.504 30.7871 91.1608 31.229 90.7552 31.5931C90.3601 31.957 89.9181 32.2587 89.4294 32.4979C88.951 32.7265 88.4363 32.8981 87.8851 33.0126C87.3442 33.1166 86.7879 33.1686 86.216 33.1686C85.2592 33.1686 84.3857 32.997 83.5953 32.6537C82.805 32.3106 82.1239 31.8166 81.5519 31.1719C80.9903 30.5168 80.5535 29.716 80.2415 28.7697C79.9295 27.8232 79.7735 26.7417 79.7735 25.5251C79.7735 24.3811 79.9191 23.31 80.2104 22.3116C80.5015 21.3133 80.9227 20.445 81.4739 19.7066C82.0355 18.9683 82.7218 18.3859 83.533 17.9595C84.344 17.5332 85.2697 17.3199 86.3095 17.3199C87.495 17.3199 88.5454 17.5488 89.4606 18.0063C90.3861 18.4639 91.1817 19.2127 91.8473 20.2525V19.8471C91.8473 19.0983 92.05 18.5367 92.4556 18.1623C92.8715 17.7776 93.4435 17.5851 94.1715 17.5851C94.6083 17.5851 94.9774 17.6579 95.279 17.8035C95.5805 17.9388 95.8197 18.1467 95.9965 18.4276C96.1734 18.6979 96.2981 19.0359 96.3709 19.4415C96.4541 19.8366 96.4956 20.289 96.4956 20.7986V31.2499C96.4956 32.5186 96.3346 33.6521 96.0122 34.6504C95.7002 35.6487 95.2114 36.4912 94.5458 37.1775C93.8803 37.8639 93.0276 38.3838 91.9876 38.7375C90.9477 39.1014 89.7101 39.2834 88.2751 39.2834C87.2663 39.2834 86.372 39.2366 85.5919 39.1429C84.8224 39.0599 84.1569 38.9298 83.5953 38.753C83.0338 38.5554 82.6074 38.3371 82.3162 38.0979C82.0355 37.8587 81.895 37.5466 81.895 37.162C81.895 36.9435 81.9262 36.7356 81.9886 36.5379C82.051 36.3404 82.1446 36.1636 82.2693 36.0076C82.4046 35.862 82.5762 35.7425 82.7842 35.6487C83.0025 35.5657 83.2677 35.524 83.5797 35.524C83.9125 35.524 84.2453 35.5448 84.578 35.5865C84.9212 35.628 85.2749 35.6696 85.6388 35.7112C86.0131 35.7632 86.4031 35.8099 86.8087 35.8516C87.2247 35.8931 87.6718 35.914 88.1502 35.914C88.7222 35.914 89.2317 35.8568 89.679 35.7425C90.1261 35.628 90.5056 35.4253 90.8176 35.134C91.1297 34.8429 91.3689 34.4529 91.5352 33.9641C91.7016 33.4857 91.7848 32.8722 91.7848 32.1234V30.2672ZM91.7848 25.4159C91.7848 24.6567 91.7276 23.9651 91.6132 23.3412C91.5093 22.7172 91.3272 22.1869 91.0672 21.75C90.8073 21.3029 90.4589 20.9597 90.0222 20.7205C89.5853 20.471 89.0394 20.3462 88.3842 20.3462C87.7394 20.3462 87.2039 20.4762 86.7776 20.7361C86.3616 20.9961 86.0288 21.355 85.7792 21.8125C85.5296 22.2701 85.3529 22.8056 85.2488 23.4193C85.1552 24.0328 85.1085 24.6879 85.1085 25.3846C85.1085 26.9757 85.3892 28.1717 85.9508 28.9724C86.5123 29.7732 87.3287 30.1736 88.3998 30.1736C88.899 30.1632 89.3514 30.0695 89.7569 29.8927C90.1728 29.7056 90.5317 29.4197 90.8332 29.0348C91.1348 28.65 91.3689 28.1612 91.5352 27.5685C91.7016 26.9757 91.7848 26.2583 91.7848 25.4159Z" fill="white"/>
<path d="M97.9283 25.4158C97.9283 24.3133 98.1051 23.2735 98.4587 22.2959C98.8227 21.3079 99.3634 20.4448 100.081 19.7065C100.809 18.9681 101.714 18.3805 102.795 17.9438C103.887 17.5069 105.166 17.2886 106.633 17.2886C108.036 17.2886 109.279 17.4914 110.361 17.897C111.442 18.3025 112.352 18.8693 113.091 19.5973C113.829 20.3148 114.391 21.1727 114.775 22.171C115.16 23.159 115.352 24.2405 115.352 25.4158C115.352 26.5077 115.17 27.5424 114.806 28.5199C114.442 29.487 113.897 30.3398 113.169 31.0782C112.441 31.8061 111.531 32.3884 110.439 32.8253C109.347 33.2516 108.078 33.4648 106.633 33.4648C105.208 33.4648 103.95 33.262 102.858 32.8564C101.776 32.4405 100.866 31.8737 100.128 31.1561C99.3999 30.4282 98.8487 29.5755 98.4742 28.5979C98.1103 27.61 97.9283 26.5492 97.9283 25.4158ZM103.123 25.4158C103.123 26.1021 103.185 26.7573 103.31 27.3812C103.435 27.9947 103.632 28.5355 103.903 29.0035C104.184 29.4714 104.547 29.8458 104.995 30.1266C105.442 30.3969 105.988 30.5322 106.633 30.5322C107.225 30.5322 107.74 30.4074 108.177 30.1577C108.624 29.9083 108.988 29.5598 109.269 29.1127C109.56 28.6655 109.778 28.1299 109.924 27.506C110.07 26.8716 110.142 26.1749 110.142 25.4158C110.142 24.7293 110.075 24.0793 109.94 23.4658C109.815 22.8419 109.612 22.2959 109.331 21.8279C109.05 21.3496 108.686 20.9752 108.239 20.7048C107.803 20.4241 107.267 20.2836 106.633 20.2836C105.998 20.2836 105.457 20.4188 105.01 20.6892C104.563 20.9596 104.199 21.3287 103.918 21.7967C103.638 22.2647 103.435 22.8106 103.31 23.4347C103.185 24.0586 103.123 24.7189 103.123 25.4158Z" fill="white"/>
<path d="M122.042 12.0319C122.042 12.3751 121.964 12.6819 121.808 12.9523C121.652 13.2122 121.449 13.4306 121.2 13.6075C120.95 13.7842 120.659 13.9194 120.326 14.0129C120.004 14.0961 119.671 14.1378 119.328 14.1378C118.964 14.1378 118.615 14.0909 118.283 13.9974C117.96 13.9038 117.674 13.7687 117.425 13.5918C117.175 13.4046 116.977 13.181 116.832 12.9211C116.686 12.6611 116.613 12.3647 116.613 12.0319C116.613 11.7303 116.681 11.4548 116.816 11.2052C116.962 10.9452 117.154 10.7216 117.393 10.5344C117.633 10.3472 117.919 10.2016 118.251 10.0976C118.584 9.99364 118.948 9.94165 119.343 9.94165C119.687 9.94165 120.019 9.98845 120.342 10.082C120.674 10.1756 120.966 10.3108 121.215 10.4876C121.465 10.6644 121.662 10.8828 121.808 11.1428C121.964 11.4028 122.042 11.6991 122.042 12.0319ZM121.808 30.2048C121.808 31.1927 121.605 31.9518 121.2 32.4822C120.804 33.0126 120.144 33.2778 119.218 33.2778C118.345 33.2778 117.726 33.0126 117.362 32.4822C117.009 31.9518 116.832 31.1927 116.832 30.2048V20.6581C116.832 19.6702 117.009 18.911 117.362 18.3807C117.726 17.8504 118.345 17.5851 119.218 17.5851C120.144 17.5851 120.804 17.8504 121.2 18.3807C121.605 18.911 121.808 19.6702 121.808 20.6581V30.2048Z" fill="white"/>
<path d="M128.981 25.3846C128.981 26.0815 129.033 26.7313 129.137 27.3346C129.251 27.9377 129.439 28.468 129.699 28.9257C129.969 29.3728 130.323 29.7263 130.759 29.9863C131.206 30.2464 131.758 30.3763 132.413 30.3763C133.016 30.3763 133.52 30.2516 133.926 30.002C134.342 29.7421 134.674 29.3884 134.925 28.9413C135.174 28.4836 135.351 27.9481 135.454 27.3346C135.569 26.721 135.626 26.0554 135.626 25.3379C135.626 24.7659 135.585 24.1836 135.501 23.5908C135.418 22.9876 135.263 22.4417 135.034 21.9529C134.805 21.4641 134.488 21.0637 134.082 20.7517C133.676 20.4398 133.146 20.2838 132.491 20.2838C131.836 20.2838 131.279 20.3878 130.822 20.5958C130.374 20.8037 130.011 21.1209 129.73 21.5473C129.459 21.9737 129.267 22.5093 129.153 23.154C129.038 23.7884 128.981 24.5319 128.981 25.3846ZM128.965 20.6581C129.225 20.107 129.558 19.6234 129.964 19.2075C130.369 18.7915 130.817 18.4431 131.305 18.1623C131.794 17.8815 132.304 17.6735 132.834 17.5384C133.375 17.3928 133.91 17.3199 134.44 17.3199C135.397 17.3199 136.261 17.5332 137.03 17.9595C137.8 18.3859 138.455 18.9683 138.995 19.7066C139.546 20.4346 139.968 21.2977 140.26 22.2961C140.55 23.284 140.696 24.3448 140.696 25.4782C140.696 26.6533 140.539 27.7297 140.228 28.7072C139.927 29.6848 139.494 30.5271 138.933 31.2342C138.382 31.9311 137.716 32.477 136.936 32.8722C136.167 33.2674 135.309 33.4649 134.363 33.4649C133.198 33.4649 132.158 33.1946 131.243 32.6537C130.328 32.113 129.569 31.3539 128.965 30.3763V35.992C128.965 36.9799 128.763 37.7391 128.357 38.2694C127.962 38.7998 127.302 39.0651 126.376 39.0651C125.502 39.0651 124.884 38.7998 124.52 38.2694C124.166 37.7391 123.989 36.9799 123.989 35.992V20.6581C123.989 19.6702 124.166 18.911 124.52 18.3807C124.884 17.8504 125.502 17.5851 126.376 17.5851C127.302 17.5851 127.962 17.8504 128.357 18.3807C128.763 18.911 128.965 19.6702 128.965 20.6581Z" fill="white"/>
<path d="M146.184 21.7656C146.184 22.171 146.362 22.4882 146.714 22.7171C147.068 22.9355 147.557 23.1175 148.181 23.2631C148.773 23.3982 149.382 23.5282 150.006 23.653C150.63 23.7778 151.239 23.9234 151.831 24.0898C152.423 24.2457 152.98 24.433 153.5 24.6513C154.019 24.8697 154.477 25.1453 154.873 25.4781C155.268 25.8005 155.579 26.1957 155.808 26.6636C156.037 27.1212 156.152 27.6724 156.152 28.3171C156.152 29.1282 155.985 29.851 155.653 30.4853C155.32 31.1093 154.847 31.6397 154.234 32.0765C153.631 32.5133 152.908 32.8512 152.065 33.0904C151.223 33.3296 150.292 33.4544 149.273 33.4648C148.306 33.4648 147.374 33.4025 146.48 33.2776C145.587 33.1633 144.791 32.9812 144.093 32.7316C143.408 32.482 142.857 32.1753 142.44 31.8112C142.025 31.4369 141.817 31.0002 141.817 30.501C141.817 30.0642 141.957 29.7262 142.238 29.487C142.519 29.2479 142.877 29.1282 143.315 29.1282C143.481 29.1282 143.678 29.1594 143.907 29.2218C144.136 29.2843 144.385 29.3623 144.655 29.4558C144.925 29.5494 145.211 29.6534 145.514 29.7678C145.825 29.8718 146.147 29.9654 146.48 30.0486C146.897 30.1631 147.323 30.2566 147.759 30.3294C148.206 30.3917 148.664 30.423 149.133 30.423C149.423 30.423 149.709 30.3969 149.99 30.345C150.271 30.2826 150.521 30.1942 150.74 30.0799C150.968 29.955 151.155 29.799 151.301 29.6118C151.446 29.4247 151.534 29.1959 151.566 28.9255C151.597 28.8631 151.623 28.8007 151.643 28.7382C151.665 28.6759 151.675 28.6031 151.675 28.5199C151.675 28.2287 151.54 27.9687 151.269 27.7399C151.01 27.5112 150.64 27.3291 150.162 27.194C149.361 27.0068 148.596 26.8353 147.868 26.6793C147.142 26.5232 146.465 26.3569 145.841 26.1801C145.227 26.0033 144.666 25.8005 144.156 25.5716C143.657 25.3429 143.231 25.0621 142.877 24.7293C142.535 24.3965 142.263 23.9961 142.066 23.5282C141.878 23.0602 141.785 22.4934 141.785 21.8279C141.785 21.1104 141.946 20.4708 142.268 19.9092C142.601 19.3372 143.075 18.859 143.689 18.4741C144.302 18.0893 145.045 17.7982 145.92 17.6006C146.793 17.3926 147.78 17.2886 148.883 17.2886C150.858 17.2886 152.361 17.5278 153.391 18.0061C154.431 18.4741 154.951 19.0876 154.951 19.8469C154.951 20.2733 154.81 20.6009 154.529 20.8295C154.248 21.048 153.91 21.1571 153.516 21.1571C153.307 21.1571 153.089 21.1208 152.86 21.048C152.642 20.9648 152.377 20.8764 152.065 20.7828C151.753 20.6789 151.378 20.5905 150.942 20.5177C150.516 20.4345 149.985 20.3928 149.351 20.3928C148.872 20.3928 148.435 20.4136 148.04 20.4552C147.655 20.4968 147.323 20.5696 147.042 20.6735C146.771 20.7776 146.559 20.9179 146.403 21.0948C146.256 21.2716 146.184 21.4951 146.184 21.7656Z" fill="white"/>
<path d="M162.483 27.4907C162.483 27.9795 162.545 28.4058 162.67 28.7699C162.805 29.1338 162.987 29.4406 163.216 29.6902C163.445 29.9294 163.71 30.1114 164.011 30.2361C164.324 30.3506 164.656 30.4078 165.009 30.4078C165.426 30.4078 165.826 30.3454 166.211 30.2205C166.596 30.0958 166.934 29.9033 167.225 29.6434C167.526 29.3834 167.766 29.0558 167.943 28.6606C168.119 28.2655 168.208 27.8027 168.208 27.2724V20.6583C168.208 19.6704 168.385 18.9113 168.738 18.3809C169.102 17.8506 169.721 17.5853 170.594 17.5853C171.52 17.5853 172.18 17.8506 172.575 18.3809C172.981 18.9113 173.184 19.6704 173.184 20.6583V30.205C173.184 31.1929 172.981 31.9521 172.575 32.4824C172.18 33.0128 171.52 33.278 170.594 33.278C169.721 33.278 169.102 33.0128 168.738 32.4824C168.385 31.9521 168.208 31.1929 168.208 30.205C167.989 30.6834 167.703 31.1201 167.349 31.5153C167.006 31.9105 166.601 32.2537 166.133 32.5448C165.675 32.8257 165.166 33.044 164.604 33.2C164.053 33.356 163.454 33.434 162.81 33.434C162.114 33.434 161.443 33.3143 160.797 33.0753C160.164 32.8257 159.602 32.4616 159.114 31.9832C158.625 31.4946 158.235 30.8913 157.944 30.1738C157.652 29.4562 157.507 28.6191 157.507 27.6623V20.6583C157.507 19.6704 157.684 18.9113 158.037 18.3809C158.401 17.8506 159.019 17.5853 159.894 17.5853C160.819 17.5853 161.479 17.8506 161.874 18.3809C162.28 18.9113 162.483 19.6704 162.483 20.6583V27.4907Z" fill="white"/>
<path d="M175.442 20.6581C175.442 19.6702 175.619 18.911 175.974 18.3807C176.337 17.8504 176.956 17.5851 177.829 17.5851C178.756 17.5851 179.416 17.8504 179.811 18.3807C180.216 18.911 180.419 19.6702 180.419 20.6581C180.627 20.159 180.908 19.7066 181.262 19.301C181.625 18.8851 182.037 18.5315 182.493 18.2403C182.962 17.9492 183.466 17.7255 184.007 17.5695C184.547 17.4031 185.109 17.3199 185.692 17.3199C186.232 17.3199 186.762 17.3928 187.283 17.5384C187.812 17.6735 188.302 17.8971 188.75 18.2091C189.206 18.5106 189.607 18.8955 189.95 19.3635C190.294 19.8314 190.559 20.393 190.746 21.0481C191.068 20.3514 191.448 19.7639 191.884 19.2855C192.321 18.8071 192.795 18.4222 193.303 18.1311C193.813 17.8399 194.344 17.632 194.895 17.5071C195.457 17.3824 196.017 17.3199 196.579 17.3199C197.245 17.3199 197.88 17.4396 198.483 17.6787C199.096 17.9179 199.631 18.2819 200.089 18.7707C200.558 19.249 200.927 19.8575 201.197 20.5958C201.478 21.3237 201.617 22.1765 201.617 23.154V30.2047C201.617 31.1927 201.415 31.9518 201.009 32.4822C200.615 33.0126 199.954 33.2778 199.028 33.2778C198.155 33.2778 197.536 33.0126 197.173 32.4822C196.819 31.9518 196.642 31.1927 196.642 30.2047V23.3724C196.642 22.9044 196.579 22.4884 196.455 22.1245C196.33 21.75 196.153 21.4382 195.924 21.1886C195.706 20.9286 195.446 20.7361 195.144 20.6114C194.843 20.4762 194.52 20.4085 194.178 20.4085C193.751 20.4085 193.346 20.4762 192.961 20.6114C192.577 20.7465 192.238 20.9546 191.947 21.2353C191.666 21.5162 191.437 21.8749 191.26 22.3116C191.094 22.7484 191.011 23.2736 191.011 23.8871V30.2047C191.011 31.1927 190.807 31.9518 190.403 32.4822C190.007 33.0126 189.347 33.2778 188.421 33.2778C187.548 33.2778 186.929 33.0126 186.565 32.4822C186.211 31.9518 186.034 31.1927 186.034 30.2047V23.6687C186.034 22.5977 185.81 21.7865 185.365 21.2353C184.927 20.6842 184.329 20.4085 183.57 20.4085C183.123 20.4085 182.706 20.4813 182.322 20.627C181.937 20.7726 181.604 20.9857 181.323 21.2666C181.042 21.5473 180.819 21.8957 180.652 22.3116C180.497 22.7276 180.419 23.206 180.419 23.7467V30.2047C180.419 31.1927 180.216 31.9518 179.811 32.4822C179.416 33.0126 178.756 33.2778 177.829 33.2778C176.956 33.2778 176.337 33.0126 175.974 32.4822C175.619 31.9518 175.442 31.1927 175.442 30.2047V20.6581Z" fill="white"/>
<path d="M22.629 30.6156C18.2181 30.6156 14.6423 27.0398 14.6423 22.6289C14.6423 18.218 18.2181 14.6422 22.629 14.6422C27.0399 14.6422 30.6157 18.218 30.6157 22.6289C30.6157 27.0398 27.0399 30.6156 22.629 30.6156Z" fill="white"/>
<path d="M7.15641 25.3574C4.84193 25.7655 3.25548 28.0013 4.14394 30.1771C5.38432 33.2147 7.3632 35.9211 9.92867 38.036C13.5971 41.0599 18.2241 42.6758 22.9775 42.5928C27.7309 42.5099 32.2988 40.7335 35.8595 37.5833C38.3495 35.3803 40.2327 32.6064 41.3664 29.5274C42.1784 27.3219 40.5148 25.1428 38.1875 24.8158C35.8603 24.4887 33.7707 26.1827 32.6211 28.2326C31.9981 29.3437 31.1891 30.3517 30.2201 31.2091C28.1771 33.0166 25.5562 34.0357 22.8291 34.0834C20.1017 34.1309 17.447 33.2039 15.3422 31.4688C14.3437 30.6458 13.5002 29.6666 12.8387 28.5779C11.6183 26.5694 9.47089 24.9493 7.15641 25.3574Z" fill="white"/>
<path d="M42.4413 25.1238C42.5433 24.3064 42.5957 23.4737 42.5957 22.6287C42.5957 11.6013 33.6564 2.66193 22.629 2.66193C11.6017 2.66193 2.66226 11.6013 2.66226 22.6287C2.66226 23.7131 2.74872 24.7774 2.91512 25.815C3.83223 24.5594 5.26361 23.6632 6.8097 23.3906C8.4825 23.0956 10.0028 23.5013 11.2883 24.2597C11.2123 23.727 11.173 23.1824 11.173 22.6287C11.173 16.3017 16.3021 11.1727 22.629 11.1727C28.9559 11.1727 34.085 16.3017 34.085 22.6287C34.085 23.0458 34.0626 23.4578 34.0192 23.8634C35.2775 23.0603 36.783 22.6015 38.4654 22.838C40.0196 23.0565 41.4809 23.9017 42.4413 25.1238Z" fill="white"/>
</svg>
