<svg width="187" height="40" viewBox="0 0 187 40" fill="none" xmlns="http://www.w3.org/2000/svg">
<path d="M29.8423 17.7981C29.3378 18.3056 28.9515 18.9182 28.7109 19.592C28.4702 20.266 28.3812 20.9846 28.45 21.6969L28.426 21.673C28.4968 22.5114 28.3837 23.3551 28.0947 24.1454C27.8057 24.9355 27.3478 25.6531 26.7529 26.2481C26.1579 26.843 25.4403 27.3011 24.65 27.5899C23.8599 27.8789 23.0161 27.992 22.1778 27.9212L22.2017 27.9452C21.1989 27.8519 20.1916 28.07 19.3172 28.5701C18.4429 29.0702 17.7441 29.8278 17.3161 30.7396C16.8882 31.6514 16.7517 32.6729 16.9256 33.6651C17.0996 34.6572 17.5752 35.5715 18.2877 36.2834C19.0003 36.9953 19.915 37.4701 20.9072 37.643C21.8996 37.8161 22.9209 37.6787 23.8323 37.2499C24.7438 36.8211 25.5006 36.1217 25.9999 35.2469C26.4992 34.3721 26.7166 33.3647 26.6224 32.3618L26.6476 32.3858C26.5768 31.5474 26.6898 30.7037 26.9788 29.9134C27.2678 29.1232 27.7259 28.4056 28.3207 27.8106C28.9157 27.2157 29.6333 26.7577 30.4235 26.4688C31.2138 26.1799 32.0574 26.0667 32.8959 26.1375L32.8706 26.1136C33.6898 26.1872 34.5144 26.0529 35.268 25.723C36.0214 25.3932 36.6795 24.8784 37.181 24.2266C37.6826 23.5747 38.0117 22.8067 38.1373 21.9939C38.2631 21.181 38.1816 20.3496 37.9005 19.5765C37.6194 18.8035 37.1476 18.114 36.5291 17.5718C35.9105 17.0296 35.1651 16.6524 34.3619 16.4751C33.5587 16.2978 32.7237 16.326 31.9343 16.5572C31.145 16.7886 30.4268 17.2153 29.8463 17.7981H29.8423Z" fill="white"/>
<path d="M20.0227 24.807L19.9974 24.783C20.71 24.8548 21.4296 24.7673 22.1043 24.5269C22.7789 24.2865 23.3918 23.8993 23.8984 23.3931C24.4049 22.8868 24.7928 22.2743 25.0336 21.5998C25.2745 20.9253 25.3625 20.2059 25.2913 19.4932L25.3166 19.5171C25.2457 18.6787 25.3589 17.835 25.6477 17.0447C25.9367 16.2546 26.3948 15.537 26.9896 14.942C27.5847 14.3471 28.3023 13.889 29.0924 13.6002C29.8827 13.3111 30.7263 13.1981 31.5648 13.2689L31.5395 13.2449C32.5425 13.3392 33.55 13.1216 34.4249 12.6221C35.2998 12.1226 35.9992 11.3653 36.4278 10.4537C36.8564 9.54207 36.9934 8.5204 36.8201 7.52804C36.6468 6.53568 36.1715 5.62096 35.4591 4.90863C34.7469 4.19631 33.8321 3.72104 32.8398 3.54771C31.8474 3.37436 30.8258 3.51134 29.9141 3.93999C29.0024 4.36862 28.2453 5.06805 27.7457 5.94288C27.2461 6.81769 27.0286 7.8253 27.1229 8.82827L27.0989 8.80298C27.1699 9.64144 27.057 10.4853 26.7681 11.2756C26.4793 12.0659 26.0213 12.7836 25.4264 13.3787C24.8314 13.9736 24.1136 14.4316 23.3233 14.7205C22.5329 15.0093 21.6891 15.1222 20.8507 15.0512L20.8746 15.0765C20.1621 15.0048 19.4423 15.0922 18.7677 15.3326C18.0931 15.5729 17.4803 15.9603 16.9737 16.4665C16.467 16.9727 16.0793 17.5853 15.8384 18.2598C15.5976 18.9342 15.5096 19.6537 15.5808 20.3664L15.5568 20.3424C15.6274 21.1808 15.5141 22.0244 15.2251 22.8146C14.936 23.6046 14.4781 24.3222 13.8832 24.9171C13.2883 25.5119 12.5708 25.9698 11.7807 26.259C10.9906 26.548 10.1469 26.6612 9.30856 26.5907L9.33252 26.6146C8.32955 26.5204 7.32194 26.7379 6.44712 27.2375C5.57231 27.737 4.87287 28.4942 4.44424 29.4059C4.01559 30.3175 3.8786 31.3392 4.05195 32.3315C4.2253 33.3239 4.70056 34.2386 5.41288 34.9509C6.12521 35.6633 7.03993 36.1385 8.03229 36.3118C9.02465 36.4851 10.0463 36.3482 10.958 35.9195C11.8696 35.4909 12.6268 34.7916 13.1263 33.9167C13.6259 33.0418 13.8434 32.0343 13.7492 31.0313L13.7745 31.0552C13.7036 30.2168 13.8168 29.3731 14.1058 28.5828C14.3946 27.7927 14.8527 27.0751 15.4475 26.4801C16.0425 25.8852 16.7601 25.4272 17.5503 25.1383C18.3406 24.8493 19.1842 24.7362 20.0227 24.807Z" fill="white"/>
<path d="M11.1015 22.1349C11.6061 21.6275 11.9923 21.0149 12.2328 20.341C12.4732 19.667 12.5619 18.9482 12.4926 18.2361L12.5178 18.2601C12.447 17.4215 12.5601 16.5774 12.8492 15.787C13.1384 14.9966 13.5966 14.2788 14.1919 13.6838C14.7871 13.0888 15.505 12.6309 16.2956 12.3422C17.0861 12.0534 17.9302 11.9406 18.7688 12.0118L18.7435 11.9878C19.7461 12.0818 20.7533 11.8642 21.6277 11.3647C22.5022 10.8652 23.2011 10.1081 23.6296 9.1968C24.058 8.28544 24.1948 7.26414 24.0215 6.27215C23.8482 5.28016 23.373 4.36579 22.661 3.65373C21.9489 2.94166 21.0345 2.46656 20.0425 2.29322C19.0506 2.11987 18.0292 2.25673 17.1179 2.68511C16.2065 3.11349 15.4495 3.81255 14.9501 4.68696C14.4505 5.56137 14.2329 6.56858 14.3268 7.5712L14.3029 7.54724C14.3737 8.38564 14.2606 9.2294 13.9716 10.0196C13.6826 10.8098 13.2247 11.5274 12.6297 12.1224C12.0348 12.7173 11.3172 13.1753 10.527 13.4642C9.73677 13.7532 8.89303 13.8663 8.05462 13.7955L8.07858 13.8195C7.25937 13.746 6.43487 13.8806 5.68148 14.2105C4.9281 14.5405 4.27019 15.0554 3.76875 15.7074C3.2673 16.3592 2.93855 17.1273 2.81291 17.9401C2.6873 18.753 2.76888 19.5844 3.05011 20.3572C3.33133 21.1302 3.80312 21.8196 4.42173 22.3616C5.04034 22.9038 5.78576 23.2809 6.58893 23.4582C7.39209 23.6354 8.227 23.607 9.01631 23.3758C9.80561 23.1445 10.5237 22.7177 11.1042 22.1349H11.1015Z" fill="white"/>
<path d="M52.3356 8.85803H56.289V28.0966H52.3356V8.85803Z" fill="white"/>
<path d="M58.5279 21.5094C58.5224 20.1269 58.9274 18.7737 59.6914 17.6215C60.4555 16.4693 61.5443 15.5697 62.8201 15.0369C64.0958 14.5039 65.5009 14.3616 66.8576 14.628C68.2143 14.8943 69.4614 15.5572 70.441 16.5329C71.4206 17.5085 72.0885 18.753 72.3603 20.1086C72.6321 21.4642 72.4954 22.87 71.9676 24.1478C71.4399 25.4256 70.5447 26.5182 69.3955 27.2867C68.2462 28.0555 66.8949 28.4658 65.5123 28.4658C64.5946 28.4764 63.684 28.3037 62.8337 27.9582C61.9833 27.6126 61.2105 27.1011 60.5602 26.4535C59.9099 25.8057 59.3953 25.0349 59.0464 24.186C58.6973 23.3372 58.5211 22.4272 58.5279 21.5094ZM68.5432 21.5094C68.5267 20.9135 68.3349 20.3357 67.9919 19.8481C67.6487 19.3606 67.1695 18.985 66.6142 18.7684C66.0587 18.5517 65.4518 18.5035 64.8692 18.63C64.2866 18.7564 63.7541 19.0517 63.3384 19.4791C62.9228 19.9064 62.6422 20.4468 62.5322 21.0328C62.4219 21.6186 62.4868 22.224 62.7188 22.7732C62.9508 23.3224 63.3395 23.791 63.8363 24.1204C64.3332 24.4499 64.9162 24.6256 65.5123 24.6256C65.9205 24.6365 66.3266 24.5626 66.7051 24.4087C67.0834 24.2549 67.4257 24.0243 67.7105 23.7316C67.9952 23.4388 68.2163 23.0901 68.3595 22.7077C68.5029 22.3253 68.5654 21.9173 68.5432 21.5094Z" fill="white"/>
<path d="M88.253 14.9204V27.4329C88.253 31.8602 84.8001 33.7317 81.2953 33.7317C80.0614 33.8241 78.8257 33.5748 77.7239 33.0113C76.6223 32.4477 75.697 31.5917 75.0497 30.537L78.4228 28.587C78.6948 29.1367 79.1284 29.5902 79.6652 29.8869C80.2022 30.1835 80.8169 30.3091 81.4271 30.2469C81.8171 30.3009 82.2143 30.2666 82.5893 30.1464C82.9641 30.0262 83.3073 29.8232 83.5932 29.5525C83.8791 29.2818 84.1005 28.9503 84.2411 28.5824C84.3815 28.2146 84.4374 27.82 84.4048 27.4275V26.2229C83.9418 26.7893 83.3527 27.2393 82.6843 27.5368C82.016 27.8343 81.2873 27.971 80.5565 27.936C78.8178 27.8812 77.1687 27.152 75.9582 25.9026C74.7477 24.6534 74.0708 22.982 74.0708 21.2425C74.0708 19.503 74.7477 17.8317 75.9582 16.5824C77.1687 15.333 78.8178 14.6038 80.5565 14.549C81.2873 14.514 82.016 14.6507 82.6843 14.9482C83.3527 15.2457 83.9418 15.6958 84.4048 16.2622V14.9177L88.253 14.9204ZM84.4061 21.2445C84.4327 20.6074 84.2679 19.9769 83.9332 19.4342C83.5984 18.8914 83.1088 18.4613 82.5275 18.1992C81.9462 17.937 81.2998 17.8548 80.6714 17.9632C80.043 18.0715 79.4614 18.3654 79.0014 18.8072C78.5415 19.2489 78.2243 19.8181 78.0905 20.4416C77.9569 21.0651 78.0128 21.7144 78.2513 22.3058C78.4897 22.8972 78.8997 23.4039 79.4284 23.7603C79.9571 24.1168 80.5805 24.3069 81.2181 24.3061C81.6335 24.3351 82.0503 24.2768 82.4418 24.1349C82.8333 23.993 83.1907 23.7706 83.491 23.4823C83.7913 23.1938 84.0279 22.8457 84.1856 22.4602C84.3432 22.0749 84.4184 21.6608 84.4061 21.2445Z" fill="white"/>
<path d="M90.492 21.5094C90.4866 20.1269 90.8913 18.7737 91.6555 17.6215C92.4196 16.4693 93.5084 15.5697 94.7842 15.0369C96.0599 14.5039 97.4651 14.3616 98.8217 14.628C100.178 14.8943 101.426 15.5572 102.405 16.5329C103.385 17.5085 104.053 18.753 104.324 20.1086C104.596 21.4642 104.46 22.87 103.932 24.1478C103.404 25.4256 102.509 26.5182 101.36 27.2867C100.21 28.0555 98.859 28.4658 97.4764 28.4658C96.5587 28.4764 95.6479 28.3037 94.7978 27.9582C93.9474 27.6126 93.1746 27.1011 92.5244 26.4535C91.874 25.8057 91.3594 25.0349 91.0105 24.186C90.6615 23.3372 90.4852 22.4272 90.492 21.5094ZM100.507 21.5094C100.491 20.9135 100.299 20.3357 99.956 19.8481C99.6128 19.3606 99.1336 18.985 98.5783 18.7684C98.0228 18.5517 97.4158 18.5035 96.8333 18.63C96.2507 18.7564 95.7182 19.0517 95.3025 19.4791C94.887 19.9064 94.6063 20.4468 94.4961 21.0328C94.3859 21.6186 94.4509 22.224 94.6829 22.7732C94.9149 23.3224 95.3036 23.791 95.8004 24.1204C96.2973 24.4499 96.8802 24.6256 97.4764 24.6256C97.8846 24.6365 98.2907 24.5626 98.6691 24.4087C99.0475 24.2549 99.3899 24.0243 99.6746 23.7316C99.9593 23.4388 100.18 23.0901 100.324 22.7077C100.467 22.3253 100.53 21.9173 100.507 21.5094Z" fill="white"/>
<path d="M106.304 11.3888C106.304 10.9196 106.443 10.461 106.704 10.0709C106.965 9.68086 107.335 9.37682 107.769 9.19729C108.202 9.01775 108.679 8.97078 109.139 9.0623C109.599 9.15383 110.022 9.37975 110.354 9.71149C110.685 10.0432 110.911 10.4659 111.003 10.926C111.094 11.3861 111.047 11.8631 110.868 12.2965C110.688 12.73 110.384 13.1004 109.994 13.3611C109.604 13.6217 109.146 13.7608 108.676 13.7608C108.049 13.7546 107.449 13.5027 107.006 13.0592C106.563 12.6157 106.311 12.0159 106.304 11.3888ZM106.704 14.9202H110.658V28.0983H106.698L106.704 14.9202Z" fill="white"/>
<path d="M127.729 21.5092C127.774 22.3802 127.647 23.2515 127.355 24.0732C127.063 24.8949 126.611 25.6507 126.026 26.2972C125.44 26.9436 124.733 27.4681 123.944 27.8403C123.155 28.2123 122.301 28.4249 121.43 28.4656C120.697 28.5056 119.965 28.382 119.286 28.104C118.607 27.8258 117.998 27.4001 117.504 26.8576V33.3681H113.551V14.9202H117.504V16.1581C117.999 15.6161 118.607 15.1907 119.286 14.9129C119.965 14.6349 120.697 14.5115 121.43 14.5515C122.301 14.5921 123.156 14.8045 123.945 15.1767C124.734 15.5489 125.441 16.0733 126.027 16.72C126.612 17.3666 127.064 18.1227 127.356 18.9447C127.648 19.7665 127.775 20.6381 127.729 21.5092ZM123.775 21.5092C123.76 20.8925 123.563 20.294 123.209 19.7886C122.855 19.2833 122.36 18.8936 121.786 18.6683C121.211 18.443 120.583 18.392 119.98 18.5219C119.377 18.6517 118.826 18.9565 118.395 19.3982C117.964 19.84 117.673 20.3988 117.559 21.0051C117.444 21.6113 117.511 22.2377 117.75 22.8062C117.99 23.3748 118.392 23.8598 118.906 24.201C119.42 24.542 120.023 24.724 120.64 24.7239C121.064 24.7428 121.487 24.6718 121.881 24.5158C122.275 24.3599 122.632 24.1223 122.928 23.8188C123.224 23.5152 123.452 23.1526 123.598 22.7546C123.744 22.3566 123.805 21.9321 123.775 21.5092Z" fill="white"/>
<path d="M139.928 24.1436C139.928 27.1746 137.294 28.4657 134.448 28.4657C133.298 28.5698 132.144 28.3268 131.133 27.7676C130.123 27.2085 129.304 26.3593 128.782 25.3296L132.207 23.3795C132.345 23.8554 132.643 24.2695 133.05 24.5524C133.456 24.8354 133.949 24.9702 134.443 24.9343C135.391 24.9343 135.866 24.6441 135.866 24.1183C135.866 22.6674 129.382 23.4328 129.382 18.8737C129.382 15.9998 131.807 14.5516 134.548 14.5516C135.578 14.519 136.598 14.7634 137.502 15.2592C138.406 15.7552 139.16 16.4844 139.686 17.3709L136.313 19.1892C136.165 18.844 135.919 18.55 135.605 18.3438C135.291 18.1376 134.923 18.0285 134.548 18.0298C133.862 18.0298 133.44 18.296 133.44 18.7672C133.446 20.2701 139.928 19.2677 139.928 24.1436Z" fill="white"/>
<path d="M154.37 14.9202V28.0982H150.416V26.8589C149.96 27.4058 149.381 27.8366 148.726 28.1162C148.071 28.3957 147.36 28.5159 146.649 28.4669C143.987 28.4669 141.724 26.5701 141.724 23.0094V14.9202H145.677V22.4303C145.644 22.7442 145.68 23.0615 145.783 23.3601C145.884 23.6588 146.05 23.9317 146.268 24.1597C146.487 24.3877 146.752 24.5654 147.046 24.6806C147.339 24.7957 147.654 24.8455 147.97 24.8263C149.419 24.8263 150.42 23.9837 150.42 22.1122V14.9242L154.37 14.9202Z" fill="white"/>
<path d="M177.038 20.0069V28.0975H173.085V20.349C173.085 19.0312 172.453 18.1886 171.188 18.1886C169.87 18.1886 169.132 19.1111 169.132 20.6658V28.0975H165.18V20.349C165.18 19.0312 164.547 18.1886 163.281 18.1886C161.964 18.1886 161.226 19.1111 161.226 20.6658V28.0975H157.273V14.9194H161.226V16.1307C161.636 15.5934 162.174 15.1671 162.79 14.8912C163.408 14.6151 164.084 14.4981 164.758 14.5507C165.434 14.5175 166.107 14.6604 166.713 14.9651C167.317 15.2696 167.832 15.7259 168.209 16.2891C168.647 15.6998 169.227 15.2313 169.896 14.9273C170.564 14.6232 171.299 14.4937 172.031 14.5507C175.056 14.552 177.038 16.7124 177.038 20.0069Z" fill="white"/>
<path d="M180.382 14.8393C182.002 14.8393 183.316 13.5258 183.316 11.9055C183.316 10.2852 182.002 8.97174 180.382 8.97174C178.762 8.97174 177.448 10.2852 177.448 11.9055C177.448 13.5258 178.762 14.8393 180.382 14.8393Z" fill="white"/>
</svg>
