<svg width="91" height="52" viewBox="0 0 91 52" fill="none" xmlns="http://www.w3.org/2000/svg">
<path d="M25.9568 2.66223C22.8977 2.66223 19.8685 3.26483 17.0423 4.43541C14.2161 5.60613 11.6482 7.32194 9.485 9.485C7.32194 11.6482 5.60613 14.2161 4.43541 17.0423C3.26483 19.8685 2.66223 22.8977 2.66223 25.9568C2.66223 29.0158 3.26483 32.045 4.43541 34.8712C5.60613 37.6975 7.32194 40.2653 9.485 42.4285C11.6482 44.5916 14.2161 46.3074 17.0423 47.4781C19.8685 48.6487 22.8977 49.2513 25.9568 49.2513V37.604C24.4272 37.604 22.9126 37.3028 21.4995 36.7174C20.0864 36.1321 18.8024 35.2742 17.7209 34.1926C16.6393 33.1111 15.7814 31.8271 15.1962 30.414C14.6107 29.0009 14.3095 27.4863 14.3095 25.9568C14.3095 24.4272 14.6107 22.9126 15.1962 21.4995C15.7814 20.0864 16.6393 18.8024 17.7209 17.7209C18.8024 16.6393 20.0864 15.7814 21.4995 15.1962C22.9126 14.6107 24.4272 14.3095 25.9568 14.3095V2.66223Z" fill="white"/>
<path d="M25.9567 33.7213C30.2451 33.7213 33.7215 30.245 33.7215 25.9565C33.7215 21.6681 30.2451 18.1917 25.9567 18.1917C21.6682 18.1917 18.1919 21.6681 18.1919 25.9565C18.1919 30.245 21.6682 33.7213 25.9567 33.7213Z" fill="white"/>
<path d="M2.66223 25.9567C2.66223 29.0157 3.26483 32.0449 4.43541 34.8711C5.60613 37.6974 7.32194 40.2652 9.485 42.4284C11.6482 44.5915 14.2161 46.3073 17.0423 47.478C19.8685 48.6486 22.8977 49.2512 25.9568 49.2512C29.0158 49.2512 32.045 48.6486 34.8712 47.478C37.6975 46.3073 40.2653 44.5915 42.4285 42.4284C44.5916 40.2652 46.3074 37.6974 47.4781 34.8711C48.6487 32.0449 49.2513 29.0157 49.2513 25.9567H37.604C37.604 27.4863 37.3028 29.0008 36.7174 30.4139C36.1321 31.827 35.2742 33.111 34.1926 34.1925C33.1111 35.2741 31.8271 36.132 30.414 36.7173C29.0009 37.3027 27.4863 37.6039 25.9568 37.6039C24.4272 37.6039 22.9126 37.3027 21.4995 36.7173C20.0864 36.132 18.8024 35.2741 17.7209 34.1925C16.6393 33.111 15.7814 31.827 15.1962 30.4139C14.6107 29.0008 14.3095 27.4863 14.3095 25.9567H2.66223Z" fill="white"/>
<path d="M33.7216 25.9566C33.7216 23.8973 32.9035 21.9223 31.4474 20.4661C29.9912 19.0098 28.0162 18.1917 25.9568 18.1917C23.8975 18.1917 21.9225 19.0098 20.4662 20.4661C19.01 21.9223 18.1919 23.8973 18.1919 25.9566H25.9568H33.7216Z" fill="white"/>
<path d="M61.417 17.2046H58.5238V33.2778H61.417V17.2046Z" fill="white"/>
<path d="M63.3063 27.584C63.3063 31.3038 65.878 33.6 69.2763 33.6C72.6747 33.6 75.2464 31.3038 75.2464 27.584C75.2464 23.8642 72.6747 21.568 69.2763 21.568C65.878 21.568 63.3063 23.8642 63.3063 27.584ZM66.1995 27.584C66.1995 25.3796 67.4853 24.0938 69.2763 24.0938C71.0673 24.0938 72.3532 25.3796 72.3532 27.584C72.3532 29.7883 71.0673 31.0742 69.2763 31.0742C67.4853 31.0742 66.1995 29.7883 66.1995 27.584Z" fill="white"/>
<path d="M85.5854 21.8895V23.4278H85.3558C84.667 22.4405 83.5648 21.568 81.5901 21.568C78.8806 21.568 76.4467 23.8642 76.4467 27.4003C76.4467 30.9364 78.8806 33.2326 81.5901 33.2326C83.5648 33.2326 84.667 32.337 85.3099 31.4415H85.5395V32.5437C85.5395 34.748 84.2537 35.7584 82.3708 35.7584C80.4879 35.7584 79.5235 34.748 79.1331 33.4392L76.5385 34.5643C77.1355 36.2864 78.8806 38.1923 82.4167 38.1923C86.0447 38.1923 88.4327 36.2864 88.4327 32.6125V21.8895H85.5854ZM82.4626 30.7527C80.6716 30.7527 79.3398 29.4668 79.3398 27.4003C79.3398 25.3337 80.6716 24.0479 82.4626 24.0479C84.2537 24.0479 85.5854 25.3337 85.5854 27.4003C85.5854 29.4668 84.2537 30.7527 82.4626 30.7527Z" fill="white"/>
<path d="M90.3042 27.584C90.3042 31.3038 92.8759 33.6 96.2743 33.6C99.6726 33.6 102.244 31.3038 102.244 27.584C102.244 23.8642 99.6726 21.568 96.2743 21.568C92.8759 21.568 90.3042 23.8642 90.3042 27.584ZM93.1974 27.584C93.1974 25.3796 94.4832 24.0938 96.2743 24.0938C98.0653 24.0938 99.3511 25.3796 99.3511 27.584C99.3511 29.7883 98.0653 31.0742 96.2743 31.0742C94.4832 31.0742 93.1974 29.7883 93.1974 27.584Z" fill="white"/>
</svg>
