<svg width="7" height="27" viewBox="0 0 7 27" fill="none" xmlns="http://www.w3.org/2000/svg">
<path d="M3.34556 26.7645C2.42553 26.7645 1.63793 26.4369 0.982759 25.7817C0.327586 25.1266 0 24.339 0 23.4189C0 22.4989 0.327586 21.7113 0.982759 21.0561C1.63793 20.401 2.42553 20.0734 3.34556 20.0734C4.26559 20.0734 5.0532 20.401 5.70837 21.0561C6.36354 21.7113 6.69113 22.4989 6.69113 23.4189C6.69113 24.339 6.36354 25.1266 5.70837 25.7817C5.0532 26.4369 4.26559 26.7645 3.34556 26.7645ZM3.34556 16.7278C2.42553 16.7278 1.63793 16.4002 0.982759 15.7451C0.327586 15.0899 0 14.3023 0 13.3823C0 12.4622 0.327586 11.6746 0.982759 11.0195C1.63793 10.3643 2.42553 10.0367 3.34556 10.0367C4.26559 10.0367 5.0532 10.3643 5.70837 11.0195C6.36354 11.6746 6.69113 12.4622 6.69113 13.3823C6.69113 14.3023 6.36354 15.0899 5.70837 15.7451C5.0532 16.4002 4.26559 16.7278 3.34556 16.7278ZM3.34556 6.69113C2.42553 6.69113 1.63793 6.36354 0.982759 5.70837C0.327586 5.0532 0 4.26559 0 3.34556C0 2.42553 0.327586 1.63793 0.982759 0.982759C1.63793 0.327586 2.42553 0 3.34556 0C4.26559 0 5.0532 0.327586 5.70837 0.982759C6.36354 1.63793 6.69113 2.42553 6.69113 3.34556C6.69113 4.26559 6.36354 5.0532 5.70837 5.70837C5.0532 6.36354 4.26559 6.69113 3.34556 6.69113Z" fill="white"/>
</svg>
